<svg width="480px" height="270px" viewBox="0 0 480 270" version="1.1" xmlns="http://www.w3.org/2000/svg" xmlns:xlink="http://www.w3.org/1999/xlink">
    <!-- Generator: Sketch 50.2 (55047) - http://www.bohemiancoding.com/sketch -->
    <desc>Created with Sketch.</desc>
    <defs></defs>
    <g id="Placeholders" stroke="none" stroke-width="1" fill="none" fill-rule="evenodd">
        <g id="Document">
            <rect id="Rectangle" fill="/**PLACEHOLDER_IMAGE_BACKGROUND_COLOR**/#070325/**PLACEHOLDER_IMAGE_BACKGROUND_COLOR**/" x="0" y="0" width="480" height="270"></rect>
            <path d="M91,139 L30.1428571,139 C24.5642857,139 20,143.55625 20,149.125 L20,220 L30.1428571,220 L30.1428571,149.125 L91,149.125 L91,139 Z M85.6,159 L116,189.333333 L116,239.888889 C116,245.45 111.44,250 105.866667,250 L50.0826667,250 C44.5093333,250 40,245.45 40,239.888889 L40.0506667,169.111111 C40.0506667,163.55 44.56,159 50.1333333,159 L85.6,159 Z M81,195 L109,195 L81,167 L81,195 Z" id="Shape" fill="/**PLACEHOLDER_IMAGE_FILE_TYPE_COLOR**/#1D1D3A/**PLACEHOLDER_IMAGE_FILE_TYPE_COLOR**/" fill-rule="nonzero"></path>
            <g id="CLICK-TO-VIEW" transform="translate(180.000000, 124.000000)" fill="/**PLACEHOLDER_IMAGE_CTA_COLOR**/#D7463F/**PLACEHOLDER_IMAGE_CTA_COLOR**/">
                <path d="M2.01,15.81 C1.3099965,14.8699953 0.96,13.5400086 0.96,11.82 L0.96,6.04 C0.96,4.2666578 1.3066632,2.9200046 2,2 C2.6933368,1.0799954 3.8866582,0.62 5.58,0.62 C7.1666746,0.62 8.29333,1.019996 8.96,1.82 C9.62667,2.620004 9.96,3.7733258 9.96,5.28 L9.96,6.64 L7.12,6.64 L7.12,5.24 C7.12,4.6666638 7.0933336,4.2166683 7.04,3.89 C6.9866664,3.5633317 6.8500011,3.2966677 6.63,3.09 C6.4099989,2.8833323 6.066669,2.78 5.6,2.78 C5.1199976,2.78 4.7600012,2.8899989 4.52,3.11 C4.2799988,3.3300011 4.1233337,3.6233315 4.05,3.99 C3.9766663,4.3566685 3.94,4.8333304 3.94,5.42 L3.94,12.44 C3.94,13.3600046 4.0599988,14.0233313 4.3,14.43 C4.5400012,14.8366687 4.9733302,15.04 5.6,15.04 C6.0533356,15.04 6.3899989,14.9333344 6.61,14.72 C6.8300011,14.5066656 6.9699997,14.2233351 7.03,13.87 C7.0900003,13.5166649 7.12,13.0466696 7.12,12.46 L7.12,11 L9.96,11 L9.96,12.3 C9.96,13.8600078 9.6333366,15.0699957 8.98,15.93 C8.3266634,16.7900043 7.1933414,17.22 5.58,17.22 C3.8999916,17.22 2.7100035,16.7500047 2.01,15.81 Z M12.52,0.8 L15.46,0.8 L15.46,14.98 L19.4,14.98 L19.4,17 L12.52,17 L12.52,0.8 Z M21.52,0.8 L24.44,0.8 L24.44,17 L21.52,17 L21.52,0.8 Z M28.23,15.81 C27.5299965,14.8699953 27.18,13.5400086 27.18,11.82 L27.18,6.04 C27.18,4.2666578 27.5266632,2.9200046 28.22,2 C28.9133368,1.0799954 30.1066582,0.62 31.8,0.62 C33.3866746,0.62 34.51333,1.019996 35.18,1.82 C35.84667,2.620004 36.18,3.7733258 36.18,5.28 L36.18,6.64 L33.34,6.64 L33.34,5.24 C33.34,4.6666638 33.3133336,4.2166683 33.26,3.89 C33.2066664,3.5633317 33.0700011,3.2966677 32.85,3.09 C32.6299989,2.8833323 32.286669,2.78 31.82,2.78 C31.3399976,2.78 30.9800012,2.8899989 30.74,3.11 C30.4999988,3.3300011 30.3433337,3.6233315 30.27,3.99 C30.1966663,4.3566685 30.16,4.8333304 30.16,5.42 L30.16,12.44 C30.16,13.3600046 30.2799988,14.0233313 30.52,14.43 C30.7600012,14.8366687 31.1933302,15.04 31.82,15.04 C32.2733356,15.04 32.6099989,14.9333344 32.83,14.72 C33.0500011,14.5066656 33.1899997,14.2233351 33.25,13.87 C33.3100003,13.5166649 33.34,13.0466696 33.34,12.46 L33.34,11 L36.18,11 L36.18,12.3 C36.18,13.8600078 35.8533366,15.0699957 35.2,15.93 C34.5466634,16.7900043 33.4133414,17.22 31.8,17.22 C30.1199916,17.22 28.9300035,16.7500047 28.23,15.81 Z M38.74,0.8 L41.68,0.8 L41.68,7.92 L44.9,0.8 L47.72,0.8 L44.62,8.02 L48.04,17 L45.1,17 L42.4,9.64 L41.68,10.86 L41.68,17 L38.74,17 L38.74,0.8 Z M56.86,2.98 L54.28,2.98 L54.28,0.8 L62.34,0.8 L62.34,2.98 L59.82,2.98 L59.82,17 L56.86,17 L56.86,2.98 Z M65.06,15.87 C64.3399964,14.9699955 63.98,13.653342 63.98,11.92 L63.98,5.84 C63.98,4.1199914 64.3399964,2.8200044 65.06,1.94 C65.7800036,1.0599956 66.9799916,0.62 68.66,0.62 C70.326675,0.62 71.5199964,1.0599956 72.24,1.94 C72.9600036,2.8200044 73.32,4.1199914 73.32,5.84 L73.32,11.92 C73.32,13.6400086 72.9566703,14.9533288 72.23,15.86 C71.5033297,16.7666712 70.3133416,17.22 68.66,17.22 C66.9799916,17.22 65.7800036,16.7700045 65.06,15.87 Z M69.98,14.42 C70.2066678,14.0066646 70.32,13.4066706 70.32,12.62 L70.32,5.16 C70.32,4.3733294 70.2100011,3.780002 69.99,3.38 C69.7699989,2.979998 69.32667,2.78 68.66,2.78 C67.99333,2.78 67.5466678,2.9833313 67.32,3.39 C67.0933322,3.7966687 66.98,4.3866628 66.98,5.16 L66.98,12.62 C66.98,13.4066706 67.0933322,14.0066646 67.32,14.42 C67.5466678,14.8333354 67.99333,15.04 68.66,15.04 C69.3133366,15.04 69.7533322,14.8333354 69.98,14.42 Z M80.6,0.8 L83.2,0.8 L85.34,12.26 L87.36,0.8 L90.02,0.8 L86.76,17 L83.86,17 L80.6,0.8 Z M92.26,0.8 L95.18,0.8 L95.18,17 L92.26,17 L92.26,0.8 Z M98.18,0.8 L104.98,0.8 L104.98,2.88 L101.12,2.88 L101.12,7.54 L104.16,7.54 L104.16,9.6 L101.12,9.6 L101.12,14.98 L105.02,14.98 L105.02,17 L98.18,17 L98.18,0.8 Z M106.66,0.8 L109.12,0.8 L110.46,11.3 L112.14,0.84 L114.14,0.84 L115.88,11.3 L117.2,0.8 L119.64,0.8 L117.38,17 L114.98,17 L113.18,6.14 L111.4,17 L108.94,17 L106.66,0.8 Z"></path>
            </g>
        </g>
    </g>
</svg>