<svg width="480px" height="270px" viewBox="0 0 480 270" version="1.1" xmlns="http://www.w3.org/2000/svg" xmlns:xlink="http://www.w3.org/1999/xlink">
    <!-- Generator: Sketch 50.2 (55047) - http://www.bohemiancoding.com/sketch -->
    <desc>Created with Sketch.</desc>
    <defs></defs>
    <g id="Placeholders" stroke="none" stroke-width="1" fill="none" fill-rule="evenodd">
        <g id="Video">
            <rect id="Rectangle" fill="/**PLACEHOLDER_IMAGE_BACKGROUND_COLOR**/#070325/**PLACEHOLDER_IMAGE_BACKGROUND_COLOR**/" x="0" y="0" width="480" height="270"></rect>
            <path d="M234,150 L253,135.5 L234,121 L234,150 Z M240.5,103 C222.56,103 208,117.56 208,135.5 C208,153.44 222.56,168 240.5,168 C258.44,168 273,153.44 273,135.5 C273,117.56 258.44,103 240.5,103 Z M240,161 C225.6675,161 214,149.3325 214,135 C214,120.6675 225.6675,109 240,109 C254.3325,109 266,120.6675 266,135 C266,149.3325 254.3325,161 240,161 Z" id="Play" fill="/**PLACEHOLDER_IMAGE_CTA_COLOR**/#D7463F/**PLACEHOLDER_IMAGE_CTA_COLOR**/" fill-rule="nonzero"></path>
            <path d="M94.6666667,210 L94.6666667,191.333333 C94.6666667,188.4 92.2666667,186 89.3333333,186 L25.3333333,186 C22.4,186 20,188.4 20,191.333333 L20,244.666667 C20,247.6 22.4,250 25.3333333,250 L89.3333333,250 C92.2666667,250 94.6666667,247.6 94.6666667,244.666667 L94.6666667,226 L116,247.333333 L116,188.666667 L94.6666667,210 Z" id="Shape" fill="/**PLACEHOLDER_IMAGE_FILE_TYPE_COLOR**/#1D1D3A/**PLACEHOLDER_IMAGE_FILE_TYPE_COLOR**/" fill-rule="nonzero"></path>
        </g>
    </g>
</svg>