<?xml version="1.0" encoding="UTF-8" ?>
<!DOCTYPE svg PUBLIC "-//W3C//DTD SVG 1.1//EN" "http://www.w3.org/Graphics/SVG/1.1/DTD/svg11.dtd">
<svg width="456pt" height="52pt" viewBox="0 0 456 52" version="1.1" xmlns="http://www.w3.org/2000/svg">
<g id="#060424ff">
</g>
<g id="#ffffffff">
<path fill="#ffffff" opacity="1.00" d=" M 72.46 2.64 C 78.17 1.47 85.63 1.41 89.27 6.83 C 92.60 12.27 91.47 18.91 91.66 24.97 C 91.45 31.18 92.62 37.90 89.48 43.60 C 86.05 49.23 78.35 49.62 72.60 48.18 C 67.05 47.04 64.40 41.12 64.25 35.95 C 64.16 28.93 64.18 21.91 64.24 14.89 C 64.34 9.71 66.91 3.83 72.46 2.64 M 74.81 12.14 C 74.43 19.41 74.80 26.72 74.64 34.01 C 74.74 36.38 74.21 39.18 76.09 41.02 C 77.41 41.17 78.73 41.23 80.05 41.20 C 81.04 38.91 81.38 36.42 81.23 33.94 C 81.06 26.65 81.46 19.35 81.04 12.08 C 80.65 8.61 75.11 8.70 74.81 12.14 Z" />
<path fill="#ffffff" opacity="1.00" d=" M 126.45 8.49 C 129.28 2.00 137.96 0.69 143.97 3.04 C 148.56 5.24 149.61 10.81 150.04 15.37 C 147.08 15.78 144.12 16.15 141.19 16.71 C 140.68 14.62 140.92 12.24 139.73 10.37 C 137.85 8.44 135.12 10.80 135.35 13.03 C 135.31 16.89 138.90 19.25 141.47 21.56 C 146.19 25.36 151.09 30.47 150.71 37.01 C 151.12 41.87 147.92 46.76 143.22 48.16 C 139.04 49.45 134.10 49.08 130.41 46.62 C 126.41 43.80 125.83 38.59 125.36 34.12 C 128.29 33.45 131.27 33.05 134.24 32.57 C 134.73 35.49 134.49 39.24 137.45 40.95 C 140.80 41.60 141.47 36.93 140.20 34.67 C 137.59 29.49 131.81 27.09 128.40 22.53 C 125.12 18.69 125.07 13.10 126.45 8.49 Z" />
<path fill="#ffffff" opacity="1.00" d=" M 179.95 5.89 C 183.48 1.63 189.71 1.43 194.71 2.57 C 203.81 5.06 205.02 18.79 198.08 24.26 C 203.07 28.12 203.12 35.26 201.63 40.84 C 200.67 44.89 197.20 48.26 193.01 48.77 C 188.89 49.20 184.09 49.18 180.91 46.10 C 177.53 42.70 177.23 37.56 177.39 33.04 C 180.50 33.04 183.61 33.06 186.72 33.01 C 186.91 35.81 186.65 41.32 190.75 41.00 C 193.92 38.59 193.37 33.87 192.24 30.54 C 191.33 28.18 188.39 28.33 186.36 27.72 C 186.41 25.56 186.42 23.39 186.41 21.23 C 188.37 21.10 190.29 20.71 192.10 19.93 C 192.76 17.16 193.57 14.15 192.37 11.40 C 191.76 9.85 189.60 9.06 188.25 10.24 C 186.60 12.28 187.17 15.13 186.51 17.52 C 183.48 17.84 180.43 17.65 177.39 17.67 C 177.27 13.63 177.24 9.20 179.95 5.89 Z" />
<path fill="#ffffff" opacity="1.00" d=" M 370.61 9.43 C 373.11 1.93 383.12 0.22 389.50 3.55 C 393.33 6.14 393.98 11.12 394.59 15.33 C 391.58 15.80 388.55 16.17 385.56 16.76 C 385.09 14.50 385.72 11.70 383.82 10.00 C 380.48 8.39 378.70 13.29 380.37 15.64 C 383.54 20.72 389.40 23.38 392.62 28.44 C 396.48 33.87 396.42 42.75 390.54 46.78 C 385.64 49.85 378.58 49.67 374.07 45.94 C 370.78 42.94 370.16 38.25 370.01 34.04 C 372.88 33.44 375.78 33.04 378.67 32.54 C 379.20 35.51 379.03 39.39 382.17 40.99 C 385.31 41.56 385.85 37.22 384.89 35.08 C 382.04 29.13 375.17 26.60 371.84 20.99 C 369.66 17.58 369.90 13.25 370.61 9.43 Z" />
<path fill="#ffffff" opacity="1.00" d=" M 433.68 2.83 C 438.33 1.58 443.69 1.55 448.00 3.92 C 452.78 7.03 452.91 13.35 452.91 18.45 C 449.66 18.83 446.38 18.73 443.12 18.73 C 443.14 15.71 442.95 12.68 442.07 9.78 C 440.17 9.69 437.03 9.07 436.71 11.77 C 435.98 18.82 436.64 25.96 436.39 33.05 C 436.58 35.70 435.75 39.19 438.24 41.01 C 439.58 41.38 441.49 41.71 442.35 40.24 C 444.33 37.56 443.52 33.92 443.77 30.80 C 442.31 30.80 440.85 30.81 439.40 30.82 C 439.41 28.76 439.32 26.70 439.54 24.65 C 443.87 23.74 448.43 24.48 452.86 24.28 C 452.85 32.19 452.86 40.10 452.85 48.01 C 450.61 48.00 448.36 48.08 446.14 47.88 C 446.05 47.28 445.86 46.09 445.77 45.49 C 442.49 49.88 436.10 49.60 431.64 47.36 C 427.44 44.90 426.20 39.61 426.09 35.08 C 426.08 28.36 426.00 21.64 426.13 14.93 C 426.31 10.02 428.48 4.26 433.68 2.83 Z" />
<path fill="#ffffff" opacity="1.00" d=" M 1.72 2.55 C 8.26 2.82 15.01 1.82 21.38 3.75 C 26.11 5.16 28.24 10.31 28.15 14.89 C 28.10 22.36 28.27 29.83 28.06 37.29 C 27.91 42.33 24.18 47.07 19.05 47.71 C 13.30 48.34 7.48 47.85 1.71 47.99 C 1.71 32.84 1.69 17.70 1.72 2.55 M 11.66 9.73 C 11.68 20.25 11.64 30.77 11.69 41.29 C 13.52 40.98 15.32 40.55 17.10 40.03 C 18.48 34.45 18.00 28.68 18.08 22.99 C 18.08 19.44 18.18 15.85 17.54 12.34 C 16.93 9.70 13.70 10.09 11.66 9.73 Z" />
<path fill="#ffffff" opacity="1.00" d=" M 33.20 2.56 C 39.12 2.71 45.09 2.17 50.97 3.09 C 54.83 3.65 58.82 6.08 59.70 10.13 C 60.87 15.85 60.68 23.25 54.92 26.49 C 57.03 33.61 59.04 40.77 61.02 47.94 C 57.53 48.02 54.03 48.00 50.54 48.00 C 48.89 41.31 47.13 34.64 45.56 27.93 C 44.95 27.93 43.74 27.92 43.13 27.92 C 43.18 34.60 43.13 41.28 43.16 47.96 C 39.84 48.01 36.53 48.01 33.21 47.99 C 33.20 32.85 33.23 17.70 33.20 2.56 M 43.13 9.63 C 43.16 13.67 43.14 17.71 43.16 21.75 C 45.01 21.58 46.93 21.64 48.67 20.88 C 51.53 18.51 50.54 14.33 50.07 11.14 C 47.99 9.77 45.54 9.57 43.13 9.63 Z" />
<path fill="#ffffff" opacity="1.00" d=" M 96.72 2.55 C 102.49 2.73 108.29 2.26 114.04 2.78 C 118.82 3.05 122.60 7.20 123.14 11.83 C 123.73 16.44 123.81 21.87 120.51 25.54 C 116.82 29.09 111.40 29.01 106.64 28.86 C 106.68 35.24 106.67 41.61 106.65 47.99 C 103.34 48.00 100.02 48.00 96.71 47.99 C 96.71 32.84 96.69 17.70 96.72 2.55 M 106.66 9.77 C 106.67 13.71 106.68 17.64 106.64 21.57 C 108.78 21.31 111.52 21.98 113.03 19.98 C 114.23 17.09 113.68 13.82 113.14 10.83 C 111.04 10.13 108.85 9.87 106.66 9.77 Z" />
<path fill="#ffffff" opacity="1.00" d=" M 151.73 2.55 C 159.69 2.71 167.66 2.30 175.61 2.78 C 175.67 5.26 175.67 7.73 175.66 10.21 C 173.32 10.28 170.99 10.26 168.65 10.21 C 168.68 22.80 168.65 35.40 168.67 47.99 C 165.26 48.00 161.86 48.01 158.45 47.98 C 158.39 35.40 158.43 22.82 158.43 10.23 C 156.18 10.27 153.93 10.28 151.68 10.25 C 151.70 7.68 151.70 5.12 151.73 2.55 Z" />
<path fill="#ffffff" opacity="1.00" d=" M 206.42 48.00 C 206.42 32.85 206.43 17.70 206.41 2.55 C 212.64 2.76 218.94 2.06 225.11 3.25 C 228.62 3.98 232.02 6.35 232.91 9.99 C 234.15 15.73 234.01 23.26 228.19 26.49 C 230.26 33.63 232.32 40.77 234.26 47.95 C 230.76 48.02 227.27 48.01 223.77 47.99 C 222.15 41.30 220.37 34.64 218.81 27.93 C 218.20 27.93 216.97 27.92 216.36 27.91 C 216.45 34.60 216.41 41.29 216.39 47.99 C 213.06 48.00 209.74 48.00 206.42 48.00 M 216.38 21.73 C 218.63 21.47 221.52 21.92 222.96 19.73 C 224.28 17.13 224.27 13.88 222.95 11.28 C 221.44 9.13 218.58 9.89 216.37 9.63 C 216.43 13.66 216.42 17.70 216.38 21.73 Z" />
<path fill="#ffffff" opacity="1.00" d=" M 236.19 2.56 C 243.21 2.64 250.24 2.46 257.26 2.62 C 258.58 3.57 258.01 5.41 258.30 6.78 C 255.48 6.86 252.66 6.85 249.84 6.83 C 249.86 20.56 249.85 34.28 249.85 48.00 C 248.13 48.00 246.42 47.99 244.71 47.99 C 244.73 34.27 244.65 20.55 244.75 6.83 C 241.90 6.85 239.05 6.85 236.21 6.84 C 236.20 5.41 236.19 3.98 236.19 2.56 Z" />
<path fill="#ffffff" opacity="1.00" d=" M 262.06 2.55 C 263.74 2.55 265.43 2.55 267.13 2.56 C 267.16 9.16 267.17 15.75 267.12 22.34 C 271.49 22.31 275.86 22.31 280.23 22.34 C 280.19 15.73 280.21 9.11 280.21 2.49 C 281.93 2.54 283.65 2.61 285.37 2.71 C 285.47 17.81 285.38 32.91 285.41 48.01 C 283.68 48.00 281.96 47.99 280.23 47.98 C 280.19 40.82 280.20 33.67 280.23 26.51 C 275.86 26.55 271.50 26.56 267.14 26.51 C 267.15 33.65 267.16 40.80 267.14 47.94 C 265.45 47.98 263.76 48.00 262.08 48.02 C 262.06 32.86 262.10 17.70 262.06 2.55 Z" />
<path fill="#ffffff" opacity="1.00" d=" M 292.20 2.56 C 297.79 2.67 303.39 2.37 308.97 2.70 C 309.59 3.97 309.35 5.45 309.54 6.81 C 305.48 6.87 301.42 6.84 297.36 6.84 C 297.44 12.09 297.44 17.35 297.35 22.61 C 300.66 22.56 303.96 22.55 307.27 22.57 C 307.35 23.99 307.14 25.32 306.63 26.56 C 303.55 26.87 300.44 26.66 297.35 26.69 C 297.44 32.50 297.44 38.31 297.36 44.12 C 301.38 44.10 305.40 44.10 309.43 44.11 C 309.41 45.40 309.40 46.69 309.38 47.98 C 303.66 48.01 297.93 48.00 292.21 47.99 C 292.20 32.85 292.22 17.70 292.20 2.56 Z" />
<path fill="#ffffff" opacity="1.00" d=" M 315.02 2.57 C 316.69 2.56 318.37 2.55 320.06 2.55 C 322.84 15.02 325.97 27.42 328.40 39.96 C 331.01 27.44 334.10 15.03 336.95 2.56 C 338.66 2.55 340.37 2.55 342.09 2.56 C 342.54 17.69 342.88 32.82 343.16 47.95 C 341.69 47.97 340.22 48.00 338.76 48.02 C 338.11 37.25 338.67 26.44 337.53 15.71 C 336.05 26.65 332.66 37.21 330.35 47.99 C 329.08 47.99 327.81 48.00 326.56 48.00 C 324.23 37.23 321.15 26.61 319.20 15.75 C 318.68 26.49 318.62 37.26 318.40 48.01 C 316.87 48.00 315.34 47.98 313.81 47.97 C 314.38 32.84 314.26 17.69 315.02 2.57 Z" />
<path fill="#ffffff" opacity="1.00" d=" M 349.72 2.55 C 355.42 2.68 361.13 2.34 366.82 2.78 C 366.83 4.13 366.84 5.49 366.85 6.84 C 362.84 6.85 358.84 6.85 354.83 6.83 C 354.86 12.08 354.86 17.34 354.84 22.59 C 358.17 22.56 361.50 22.56 364.83 22.57 C 364.48 23.95 365.30 27.02 362.91 26.67 C 360.22 26.79 357.53 26.69 354.84 26.68 C 354.85 32.49 354.86 38.30 354.84 44.12 C 358.85 44.10 362.85 44.10 366.86 44.11 C 366.85 45.40 366.83 46.69 366.83 47.98 C 361.12 48.01 355.41 48.00 349.71 47.99 C 349.71 32.84 349.69 17.70 349.72 2.55 Z" />
<path fill="#ffffff" opacity="1.00" d=" M 396.05 2.59 C 399.06 2.56 402.08 2.56 405.09 2.55 C 406.77 12.16 408.50 21.75 409.97 31.39 C 411.11 21.73 412.95 12.17 414.39 2.56 C 417.50 2.55 420.61 2.49 423.71 2.81 C 420.88 17.87 418.02 32.93 415.12 47.98 C 411.65 48.01 408.18 48.00 404.71 47.99 C 401.84 32.86 398.99 17.71 396.05 2.59 Z" />
</g>
</svg>
