
<svg width="480px" height="270px" viewBox="0 0 480 270" version="1.1" xmlns="http://www.w3.org/2000/svg" xmlns:xlink="http://www.w3.org/1999/xlink">
    <!-- Generator: Sketch 50.2 (55047) - http://www.bohemiancoding.com/sketch -->
    <desc>Created with Sketch.</desc>
    <defs></defs>
    <g id="Placeholders" stroke="none" stroke-width="1" fill="none" fill-rule="evenodd">
        <g id="Archive">
            <rect id="Rectangle" fill="/**PLACEHOLDER_IMAGE_BACKGROUND_COLOR**//**PLACEHOLDER_IMAGE_BACKGROUND_COLOR**/" x="0" y="0" width="480" height="270"></rect>
            <path d="M119.393333,160.636667 L111.516667,151.116667 C109.986667,149.19 107.663333,148 105,148 L37,148 C34.3366667,148 32.0133333,149.19 30.4266667,151.116667 L22.6066667,160.636667 C20.9633333,162.563333 20,165.113333 20,167.833333 L20,238.666667 C20,244.9 25.1,250 31.3333333,250 L110.666667,250 C116.9,250 122,244.9 122,238.666667 L122,167.833333 C122,165.113333 121.036667,162.563333 119.393333,160.636667 Z M71,230 L40,199.2 L59.7272727,199.2 L59.7272727,188 L82.2727273,188 L82.2727273,199.2 L102,199.2 L71,230 Z M32,160 L36.5949091,154 L104.667636,154 L110,160 L32,160 Z" id="Shape" fill="/**PLACEHOLDER_IMAGE_FILE_TYPE_COLOR**//**PLACEHOLDER_IMAGE_FILE_TYPE_COLOR**/" fill-rule="nonzero"></path>
            <g id="CLICK-TO-DOWNLOAD" transform="translate(154.000000, 122.000000)" fill="/**PLACEHOLDER_IMAGE_CTA_COLOR**//**PLACEHOLDER_IMAGE_CTA_COLOR**/">
                <path d="M2.01,17.81 C1.3099965,16.8699953 0.96,15.5400086 0.96,13.82 L0.96,8.04 C0.96,6.2666578 1.3066632,4.9200046 2,4 C2.6933368,3.0799954 3.8866582,2.62 5.58,2.62 C7.1666746,2.62 8.29333,3.019996 8.96,3.82 C9.62667,4.620004 9.96,5.7733258 9.96,7.28 L9.96,8.64 L7.12,8.64 L7.12,7.24 C7.12,6.6666638 7.0933336,6.2166683 7.04,5.89 C6.9866664,5.5633317 6.8500011,5.2966677 6.63,5.09 C6.4099989,4.8833323 6.066669,4.78 5.6,4.78 C5.1199976,4.78 4.7600012,4.8899989 4.52,5.11 C4.2799988,5.3300011 4.1233337,5.6233315 4.05,5.99 C3.9766663,6.3566685 3.94,6.8333304 3.94,7.42 L3.94,14.44 C3.94,15.3600046 4.0599988,16.0233313 4.3,16.43 C4.5400012,16.8366687 4.9733302,17.04 5.6,17.04 C6.0533356,17.04 6.3899989,16.9333344 6.61,16.72 C6.8300011,16.5066656 6.9699997,16.2233351 7.03,15.87 C7.0900003,15.5166649 7.12,15.0466696 7.12,14.46 L7.12,13 L9.96,13 L9.96,14.3 C9.96,15.8600078 9.6333366,17.0699957 8.98,17.93 C8.3266634,18.7900043 7.1933414,19.22 5.58,19.22 C3.8999916,19.22 2.7100035,18.7500047 2.01,17.81 Z M12.52,2.8 L15.46,2.8 L15.46,16.98 L19.4,16.98 L19.4,19 L12.52,19 L12.52,2.8 Z M21.52,2.8 L24.44,2.8 L24.44,19 L21.52,19 L21.52,2.8 Z M28.23,17.81 C27.5299965,16.8699953 27.18,15.5400086 27.18,13.82 L27.18,8.04 C27.18,6.2666578 27.5266632,4.9200046 28.22,4 C28.9133368,3.0799954 30.1066582,2.62 31.8,2.62 C33.3866746,2.62 34.51333,3.019996 35.18,3.82 C35.84667,4.620004 36.18,5.7733258 36.18,7.28 L36.18,8.64 L33.34,8.64 L33.34,7.24 C33.34,6.6666638 33.3133336,6.2166683 33.26,5.89 C33.2066664,5.5633317 33.0700011,5.2966677 32.85,5.09 C32.6299989,4.8833323 32.286669,4.78 31.82,4.78 C31.3399976,4.78 30.9800012,4.8899989 30.74,5.11 C30.4999988,5.3300011 30.3433337,5.6233315 30.27,5.99 C30.1966663,6.3566685 30.16,6.8333304 30.16,7.42 L30.16,14.44 C30.16,15.3600046 30.2799988,16.0233313 30.52,16.43 C30.7600012,16.8366687 31.1933302,17.04 31.82,17.04 C32.2733356,17.04 32.6099989,16.9333344 32.83,16.72 C33.0500011,16.5066656 33.1899997,16.2233351 33.25,15.87 C33.3100003,15.5166649 33.34,15.0466696 33.34,14.46 L33.34,13 L36.18,13 L36.18,14.3 C36.18,15.8600078 35.8533366,17.0699957 35.2,17.93 C34.5466634,18.7900043 33.4133414,19.22 31.8,19.22 C30.1199916,19.22 28.9300035,18.7500047 28.23,17.81 Z M38.74,2.8 L41.68,2.8 L41.68,9.92 L44.9,2.8 L47.72,2.8 L44.62,10.02 L48.04,19 L45.1,19 L42.4,11.64 L41.68,12.86 L41.68,19 L38.74,19 L38.74,2.8 Z M56.86,4.98 L54.28,4.98 L54.28,2.8 L62.34,2.8 L62.34,4.98 L59.82,4.98 L59.82,19 L56.86,19 L56.86,4.98 Z M65.06,17.87 C64.3399964,16.9699955 63.98,15.653342 63.98,13.92 L63.98,7.84 C63.98,6.1199914 64.3399964,4.8200044 65.06,3.94 C65.7800036,3.0599956 66.9799916,2.62 68.66,2.62 C70.326675,2.62 71.5199964,3.0599956 72.24,3.94 C72.9600036,4.8200044 73.32,6.1199914 73.32,7.84 L73.32,13.92 C73.32,15.6400086 72.9566703,16.9533288 72.23,17.86 C71.5033297,18.7666712 70.3133416,19.22 68.66,19.22 C66.9799916,19.22 65.7800036,18.7700045 65.06,17.87 Z M69.98,16.42 C70.2066678,16.0066646 70.32,15.4066706 70.32,14.62 L70.32,7.16 C70.32,6.3733294 70.2100011,5.780002 69.99,5.38 C69.7699989,4.979998 69.32667,4.78 68.66,4.78 C67.99333,4.78 67.5466678,4.9833313 67.32,5.39 C67.0933322,5.7966687 66.98,6.3866628 66.98,7.16 L66.98,14.62 C66.98,15.4066706 67.0933322,16.0066646 67.32,16.42 C67.5466678,16.8333354 67.99333,17.04 68.66,17.04 C69.3133366,17.04 69.7533322,16.8333354 69.98,16.42 Z M81.36,2.8 L85.18,2.8 C86.4866732,2.8 87.5133296,2.9766649 88.26,3.33 C89.0066704,3.6833351 89.5366651,4.2233297 89.85,4.95 C90.1633349,5.6766703 90.32,6.639994 90.32,7.84 L90.32,13.74 C90.32,14.9666728 90.1633349,15.9599962 89.85,16.72 C89.5366651,17.4800038 89.013337,18.0499981 88.28,18.43 C87.546663,18.8100019 86.5533396,19 85.3,19 L81.36,19 L81.36,2.8 Z M85.22,16.94 C85.8733366,16.94 86.3466652,16.8266678 86.64,16.6 C86.9333348,16.3733322 87.1199996,16.0566687 87.2,15.65 C87.2800004,15.2433313 87.32,14.640004 87.32,13.84 L87.32,7.64 C87.32,6.9199964 87.2733338,6.3733352 87.18,6 C87.0866662,5.6266648 86.8900015,5.3500009 86.59,5.17 C86.2899985,4.9899991 85.8200032,4.9 85.18,4.9 L84.3,4.9 L84.3,16.94 L85.22,16.94 Z M93.82,17.87 C93.0999964,16.9699955 92.74,15.653342 92.74,13.92 L92.74,7.84 C92.74,6.1199914 93.0999964,4.8200044 93.82,3.94 C94.5400036,3.0599956 95.7399916,2.62 97.42,2.62 C99.086675,2.62 100.279996,3.0599956 101,3.94 C101.720004,4.8200044 102.08,6.1199914 102.08,7.84 L102.08,13.92 C102.08,15.6400086 101.71667,16.9533288 100.99,17.86 C100.26333,18.7666712 99.0733416,19.22 97.42,19.22 C95.7399916,19.22 94.5400036,18.7700045 93.82,17.87 Z M98.74,16.42 C98.9666678,16.0066646 99.08,15.4066706 99.08,14.62 L99.08,7.16 C99.08,6.3733294 98.9700011,5.780002 98.75,5.38 C98.5299989,4.979998 98.08667,4.78 97.42,4.78 C96.75333,4.78 96.3066678,4.9833313 96.08,5.39 C95.8533322,5.7966687 95.74,6.3866628 95.74,7.16 L95.74,14.62 C95.74,15.4066706 95.8533322,16.0066646 96.08,16.42 C96.3066678,16.8333354 96.75333,17.04 97.42,17.04 C98.0733366,17.04 98.5133322,16.8333354 98.74,16.42 Z M104.18,2.8 L106.64,2.8 L107.98,13.3 L109.66,2.84 L111.66,2.84 L113.4,13.3 L114.72,2.8 L117.16,2.8 L114.9,19 L112.5,19 L110.7,8.14 L108.92,19 L106.46,19 L104.18,2.8 Z M119.52,2.8 L121.58,2.8 L125.52,12.04 L125.52,2.8 L127.96,2.8 L127.96,19 L126,19 L122.04,9.32 L122.04,19 L119.52,19 L119.52,2.8 Z M130.92,2.8 L133.86,2.8 L133.86,16.98 L137.8,16.98 L137.8,19 L130.92,19 L130.92,2.8 Z M140.46,17.87 C139.739996,16.9699955 139.38,15.653342 139.38,13.92 L139.38,7.84 C139.38,6.1199914 139.739996,4.8200044 140.46,3.94 C141.180004,3.0599956 142.379992,2.62 144.06,2.62 C145.726675,2.62 146.919996,3.0599956 147.64,3.94 C148.360004,4.8200044 148.72,6.1199914 148.72,7.84 L148.72,13.92 C148.72,15.6400086 148.35667,16.9533288 147.63,17.86 C146.90333,18.7666712 145.713342,19.22 144.06,19.22 C142.379992,19.22 141.180004,18.7700045 140.46,17.87 Z M145.38,16.42 C145.606668,16.0066646 145.72,15.4066706 145.72,14.62 L145.72,7.16 C145.72,6.3733294 145.610001,5.780002 145.39,5.38 C145.169999,4.979998 144.72667,4.78 144.06,4.78 C143.39333,4.78 142.946668,4.9833313 142.72,5.39 C142.493332,5.7966687 142.38,6.3866628 142.38,7.16 L142.38,14.62 C142.38,15.4066706 142.493332,16.0066646 142.72,16.42 C142.946668,16.8333354 143.39333,17.04 144.06,17.04 C144.713337,17.04 145.153332,16.8333354 145.38,16.42 Z M153.7,2.8 L156.86,2.8 L160.1,19 L157.36,19 L156.72,15.26 L153.9,15.26 L153.24,19 L150.46,19 L153.7,2.8 Z M156.4,13.38 L155.3,6.58 L154.2,13.38 L156.4,13.38 Z M162.22,2.8 L166.04,2.8 C167.346673,2.8 168.37333,2.9766649 169.12,3.33 C169.86667,3.6833351 170.396665,4.2233297 170.71,4.95 C171.023335,5.6766703 171.18,6.639994 171.18,7.84 L171.18,13.74 C171.18,14.9666728 171.023335,15.9599962 170.71,16.72 C170.396665,17.4800038 169.873337,18.0499981 169.14,18.43 C168.406663,18.8100019 167.41334,19 166.16,19 L162.22,19 L162.22,2.8 Z M166.08,16.94 C166.733337,16.94 167.206665,16.8266678 167.5,16.6 C167.793335,16.3733322 167.98,16.0566687 168.06,15.65 C168.14,15.2433313 168.18,14.640004 168.18,13.84 L168.18,7.64 C168.18,6.9199964 168.133334,6.3733352 168.04,6 C167.946666,5.6266648 167.750001,5.3500009 167.45,5.17 C167.149998,4.9899991 166.680003,4.9 166.04,4.9 L165.16,4.9 L165.16,16.94 L166.08,16.94 Z"></path>
            </g>
        </g>
    </g>
</svg>