<svg width="480px" height="270px" viewBox="0 0 480 270" version="1.1" xmlns="http://www.w3.org/2000/svg" xmlns:xlink="http://www.w3.org/1999/xlink">
    <!-- Generator: Sketch 50.2 (55047) - http://www.bohemiancoding.com/sketch -->
    <desc>Created with Sketch.</desc>
    <defs></defs>
    <g id="Placeholders" stroke="none" stroke-width="1" fill="none" fill-rule="evenodd">
        <g id="Video">
            <rect id="Rectangle" fill="/**PLACEHOLDER_IMAGE_BACKGROUND_COLOR**//**PLACEHOLDER_IMAGE_BACKGROUND_COLOR**/" x="0" y="0" width="480" height="270"></rect>
            <path d="M234,150 L253,135.5 L234,121 L234,150 Z M240.5,103 C222.56,103 208,117.56 208,135.5 C208,153.44 222.56,168 240.5,168 C258.44,168 273,153.44 273,135.5 C273,117.56 258.44,103 240.5,103 Z M240,161 C225.6675,161 214,149.3325 214,135 C214,120.6675 225.6675,109 240,109 C254.3325,109 266,120.6675 266,135 C266,149.3325 254.3325,161 240,161 Z" id="Play" fill="/**PLACEHOLDER_IMAGE_ICON_COLOR**//**PLACEHOLDER_IMAGE_ICON_COLOR**/" fill-rule="nonzero"></path>
            <path d="M120,150 L132.5,168.75 L113.75,168.75 L101.25,150 L88.75,150 L101.25,168.75 L82.5,168.75 L70,150 L57.5,150 L70,168.75 L51.25,168.75 L38.75,150 L32.5,150 C25.625,150 20.0625,155.625 20.0625,162.5 L20,237.5 C20,244.375 25.625,250 32.5,250 L132.5,250 C139.375,250 145,244.375 145,237.5 L145,150 L120,150 Z M77.8125,220.8125 L70,238 L62.1875,220.8125 L45,213 L62.1875,205.1875 L70,188 L77.8125,205.1875 L95,213 L77.8125,220.8125 Z M113.296667,199.296667 L107.5,212 L101.703333,199.296667 L89,193.5 L101.703333,187.703333 L107.5,175 L113.296667,187.703333 L126,193.5 L113.296667,199.296667 Z" id="Shape" fill="/**PLACEHOLDER_IMAGE_FILE_TYPE_COLOR**//**PLACEHOLDER_IMAGE_FILE_TYPE_COLOR**/" fill-rule="nonzero"></path>
        </g>
    </g>
</svg>