<svg width="480px" height="270px" viewBox="0 0 480 270" version="1.1" xmlns="http://www.w3.org/2000/svg" xmlns:xlink="http://www.w3.org/1999/xlink">
    <!-- Generator: Sketch 50.2 (55047) - http://www.bohemiancoding.com/sketch -->
    <desc>Created with Sketch.</desc>
    <defs></defs>
    <g id="Placeholders" stroke="none" stroke-width="1" fill="none" fill-rule="evenodd">
        <g id="Generic">
            <rect id="Rectangle" fill="/**PLACEHOLDER_IMAGE_BACKGROUND_COLOR**//**PLACEHOLDER_IMAGE_BACKGROUND_COLOR**/" x="0" y="0" width="480" height="270"></rect>
            <path d="M20,221.5 C20,205.747273 32.792,193 48.6,193 L103.2,193 C114.692,193 124,202.275455 124,213.727273 C124,225.179091 114.692,234.454545 103.2,234.454545 L59,234.454545 C51.824,234.454545 46,228.650909 46,221.5 C46,214.349091 51.824,208.545455 59,208.545455 L98,208.545455 L98,218.909091 L58.532,218.909091 C55.672,218.909091 55.672,224.090909 58.532,224.090909 L103.2,224.090909 C108.92,224.090909 113.6,219.427273 113.6,213.727273 C113.6,208.027273 108.92,203.363636 103.2,203.363636 L48.6,203.363636 C38.564,203.363636 30.4,211.499091 30.4,221.5 C30.4,231.500909 38.564,239.636364 48.6,239.636364 L98,239.636364 L98,250 L48.6,250 C32.792,250 20,237.252727 20,221.5 Z" id="Shape" fill="/**PLACEHOLDER_IMAGE_FILE_TYPE_COLOR**//**PLACEHOLDER_IMAGE_FILE_TYPE_COLOR**/" fill-rule="nonzero"></path>
            <g id="CLICK-TO-DOWNLOAD" transform="translate(154.000000, 124.000000)" fill="/**PLACEHOLDER_IMAGE_CTA_COLOR**//**PLACEHOLDER_IMAGE_CTA_COLOR**/">
                <path d="M2.01,15.81 C1.3099965,14.8699953 0.96,13.5400086 0.96,11.82 L0.96,6.04 C0.96,4.2666578 1.3066632,2.9200046 2,2 C2.6933368,1.0799954 3.8866582,0.62 5.58,0.62 C7.1666746,0.62 8.29333,1.019996 8.96,1.82 C9.62667,2.620004 9.96,3.7733258 9.96,5.28 L9.96,6.64 L7.12,6.64 L7.12,5.24 C7.12,4.6666638 7.0933336,4.2166683 7.04,3.89 C6.9866664,3.5633317 6.8500011,3.2966677 6.63,3.09 C6.4099989,2.8833323 6.066669,2.78 5.6,2.78 C5.1199976,2.78 4.7600012,2.8899989 4.52,3.11 C4.2799988,3.3300011 4.1233337,3.6233315 4.05,3.99 C3.9766663,4.3566685 3.94,4.8333304 3.94,5.42 L3.94,12.44 C3.94,13.3600046 4.0599988,14.0233313 4.3,14.43 C4.5400012,14.8366687 4.9733302,15.04 5.6,15.04 C6.0533356,15.04 6.3899989,14.9333344 6.61,14.72 C6.8300011,14.5066656 6.9699997,14.2233351 7.03,13.87 C7.0900003,13.5166649 7.12,13.0466696 7.12,12.46 L7.12,11 L9.96,11 L9.96,12.3 C9.96,13.8600078 9.6333366,15.0699957 8.98,15.93 C8.3266634,16.7900043 7.1933414,17.22 5.58,17.22 C3.8999916,17.22 2.7100035,16.7500047 2.01,15.81 Z M12.52,0.8 L15.46,0.8 L15.46,14.98 L19.4,14.98 L19.4,17 L12.52,17 L12.52,0.8 Z M21.52,0.8 L24.44,0.8 L24.44,17 L21.52,17 L21.52,0.8 Z M28.23,15.81 C27.5299965,14.8699953 27.18,13.5400086 27.18,11.82 L27.18,6.04 C27.18,4.2666578 27.5266632,2.9200046 28.22,2 C28.9133368,1.0799954 30.1066582,0.62 31.8,0.62 C33.3866746,0.62 34.51333,1.019996 35.18,1.82 C35.84667,2.620004 36.18,3.7733258 36.18,5.28 L36.18,6.64 L33.34,6.64 L33.34,5.24 C33.34,4.6666638 33.3133336,4.2166683 33.26,3.89 C33.2066664,3.5633317 33.0700011,3.2966677 32.85,3.09 C32.6299989,2.8833323 32.286669,2.78 31.82,2.78 C31.3399976,2.78 30.9800012,2.8899989 30.74,3.11 C30.4999988,3.3300011 30.3433337,3.6233315 30.27,3.99 C30.1966663,4.3566685 30.16,4.8333304 30.16,5.42 L30.16,12.44 C30.16,13.3600046 30.2799988,14.0233313 30.52,14.43 C30.7600012,14.8366687 31.1933302,15.04 31.82,15.04 C32.2733356,15.04 32.6099989,14.9333344 32.83,14.72 C33.0500011,14.5066656 33.1899997,14.2233351 33.25,13.87 C33.3100003,13.5166649 33.34,13.0466696 33.34,12.46 L33.34,11 L36.18,11 L36.18,12.3 C36.18,13.8600078 35.8533366,15.0699957 35.2,15.93 C34.5466634,16.7900043 33.4133414,17.22 31.8,17.22 C30.1199916,17.22 28.9300035,16.7500047 28.23,15.81 Z M38.74,0.8 L41.68,0.8 L41.68,7.92 L44.9,0.8 L47.72,0.8 L44.62,8.02 L48.04,17 L45.1,17 L42.4,9.64 L41.68,10.86 L41.68,17 L38.74,17 L38.74,0.8 Z M56.86,2.98 L54.28,2.98 L54.28,0.8 L62.34,0.8 L62.34,2.98 L59.82,2.98 L59.82,17 L56.86,17 L56.86,2.98 Z M65.06,15.87 C64.3399964,14.9699955 63.98,13.653342 63.98,11.92 L63.98,5.84 C63.98,4.1199914 64.3399964,2.8200044 65.06,1.94 C65.7800036,1.0599956 66.9799916,0.62 68.66,0.62 C70.326675,0.62 71.5199964,1.0599956 72.24,1.94 C72.9600036,2.8200044 73.32,4.1199914 73.32,5.84 L73.32,11.92 C73.32,13.6400086 72.9566703,14.9533288 72.23,15.86 C71.5033297,16.7666712 70.3133416,17.22 68.66,17.22 C66.9799916,17.22 65.7800036,16.7700045 65.06,15.87 Z M69.98,14.42 C70.2066678,14.0066646 70.32,13.4066706 70.32,12.62 L70.32,5.16 C70.32,4.3733294 70.2100011,3.780002 69.99,3.38 C69.7699989,2.979998 69.32667,2.78 68.66,2.78 C67.99333,2.78 67.5466678,2.9833313 67.32,3.39 C67.0933322,3.7966687 66.98,4.3866628 66.98,5.16 L66.98,12.62 C66.98,13.4066706 67.0933322,14.0066646 67.32,14.42 C67.5466678,14.8333354 67.99333,15.04 68.66,15.04 C69.3133366,15.04 69.7533322,14.8333354 69.98,14.42 Z M81.36,0.8 L85.18,0.8 C86.4866732,0.8 87.5133296,0.9766649 88.26,1.33 C89.0066704,1.6833351 89.5366651,2.2233297 89.85,2.95 C90.1633349,3.6766703 90.32,4.639994 90.32,5.84 L90.32,11.74 C90.32,12.9666728 90.1633349,13.9599962 89.85,14.72 C89.5366651,15.4800038 89.013337,16.0499981 88.28,16.43 C87.546663,16.8100019 86.5533396,17 85.3,17 L81.36,17 L81.36,0.8 Z M85.22,14.94 C85.8733366,14.94 86.3466652,14.8266678 86.64,14.6 C86.9333348,14.3733322 87.1199996,14.0566687 87.2,13.65 C87.2800004,13.2433313 87.32,12.640004 87.32,11.84 L87.32,5.64 C87.32,4.9199964 87.2733338,4.3733352 87.18,4 C87.0866662,3.6266648 86.8900015,3.3500009 86.59,3.17 C86.2899985,2.9899991 85.8200032,2.9 85.18,2.9 L84.3,2.9 L84.3,14.94 L85.22,14.94 Z M93.82,15.87 C93.0999964,14.9699955 92.74,13.653342 92.74,11.92 L92.74,5.84 C92.74,4.1199914 93.0999964,2.8200044 93.82,1.94 C94.5400036,1.0599956 95.7399916,0.62 97.42,0.62 C99.086675,0.62 100.279996,1.0599956 101,1.94 C101.720004,2.8200044 102.08,4.1199914 102.08,5.84 L102.08,11.92 C102.08,13.6400086 101.71667,14.9533288 100.99,15.86 C100.26333,16.7666712 99.0733416,17.22 97.42,17.22 C95.7399916,17.22 94.5400036,16.7700045 93.82,15.87 Z M98.74,14.42 C98.9666678,14.0066646 99.08,13.4066706 99.08,12.62 L99.08,5.16 C99.08,4.3733294 98.9700011,3.780002 98.75,3.38 C98.5299989,2.979998 98.08667,2.78 97.42,2.78 C96.75333,2.78 96.3066678,2.9833313 96.08,3.39 C95.8533322,3.7966687 95.74,4.3866628 95.74,5.16 L95.74,12.62 C95.74,13.4066706 95.8533322,14.0066646 96.08,14.42 C96.3066678,14.8333354 96.75333,15.04 97.42,15.04 C98.0733366,15.04 98.5133322,14.8333354 98.74,14.42 Z M104.18,0.8 L106.64,0.8 L107.98,11.3 L109.66,0.84 L111.66,0.84 L113.4,11.3 L114.72,0.8 L117.16,0.8 L114.9,17 L112.5,17 L110.7,6.14 L108.92,17 L106.46,17 L104.18,0.8 Z M119.52,0.8 L121.58,0.8 L125.52,10.04 L125.52,0.8 L127.96,0.8 L127.96,17 L126,17 L122.04,7.32 L122.04,17 L119.52,17 L119.52,0.8 Z M130.92,0.8 L133.86,0.8 L133.86,14.98 L137.8,14.98 L137.8,17 L130.92,17 L130.92,0.8 Z M140.46,15.87 C139.739996,14.9699955 139.38,13.653342 139.38,11.92 L139.38,5.84 C139.38,4.1199914 139.739996,2.8200044 140.46,1.94 C141.180004,1.0599956 142.379992,0.62 144.06,0.62 C145.726675,0.62 146.919996,1.0599956 147.64,1.94 C148.360004,2.8200044 148.72,4.1199914 148.72,5.84 L148.72,11.92 C148.72,13.6400086 148.35667,14.9533288 147.63,15.86 C146.90333,16.7666712 145.713342,17.22 144.06,17.22 C142.379992,17.22 141.180004,16.7700045 140.46,15.87 Z M145.38,14.42 C145.606668,14.0066646 145.72,13.4066706 145.72,12.62 L145.72,5.16 C145.72,4.3733294 145.610001,3.780002 145.39,3.38 C145.169999,2.979998 144.72667,2.78 144.06,2.78 C143.39333,2.78 142.946668,2.9833313 142.72,3.39 C142.493332,3.7966687 142.38,4.3866628 142.38,5.16 L142.38,12.62 C142.38,13.4066706 142.493332,14.0066646 142.72,14.42 C142.946668,14.8333354 143.39333,15.04 144.06,15.04 C144.713337,15.04 145.153332,14.8333354 145.38,14.42 Z M153.7,0.8 L156.86,0.8 L160.1,17 L157.36,17 L156.72,13.26 L153.9,13.26 L153.24,17 L150.46,17 L153.7,0.8 Z M156.4,11.38 L155.3,4.58 L154.2,11.38 L156.4,11.38 Z M162.22,0.8 L166.04,0.8 C167.346673,0.8 168.37333,0.9766649 169.12,1.33 C169.86667,1.6833351 170.396665,2.2233297 170.71,2.95 C171.023335,3.6766703 171.18,4.639994 171.18,5.84 L171.18,11.74 C171.18,12.9666728 171.023335,13.9599962 170.71,14.72 C170.396665,15.4800038 169.873337,16.0499981 169.14,16.43 C168.406663,16.8100019 167.41334,17 166.16,17 L162.22,17 L162.22,0.8 Z M166.08,14.94 C166.733337,14.94 167.206665,14.8266678 167.5,14.6 C167.793335,14.3733322 167.98,14.0566687 168.06,13.65 C168.14,13.2433313 168.18,12.640004 168.18,11.84 L168.18,5.64 C168.18,4.9199964 168.133334,4.3733352 168.04,4 C167.946666,3.6266648 167.750002,3.3500009 167.45,3.17 C167.149999,2.9899991 166.680003,2.9 166.04,2.9 L165.16,2.9 L165.16,14.94 L166.08,14.94 Z"></path>
            </g>
        </g>
    </g>
</svg>